<svg width="312" height="221" viewBox="0 0 312 221" fill="none" xmlns="http://www.w3.org/2000/svg">
<path fill-rule="evenodd" clip-rule="evenodd" d="M97.181 221.283H156.631V66.6689H97.181V221.283Z" fill="#F5BF48"/>
<path fill-rule="evenodd" clip-rule="evenodd" d="M124.837 221.283H128.973V66.6689H124.837V221.283Z" fill="#243126"/>
<path fill-rule="evenodd" clip-rule="evenodd" d="M97.18 102.702H156.63V98.5669H97.18V102.702Z" fill="#243126"/>
<path fill-rule="evenodd" clip-rule="evenodd" d="M141.595 118.597L108.595 85.5966L111.52 82.6736L144.519 115.673L141.595 118.597Z" fill="#243126"/>
<path fill-rule="evenodd" clip-rule="evenodd" d="M111.52 118.597L108.596 115.673L141.595 82.6736L144.52 85.5966L111.52 118.597Z" fill="#243126"/>
<path fill-rule="evenodd" clip-rule="evenodd" d="M87.8364 154.784C92.2334 154.784 96.3854 156.502 99.5154 159.632C102.624 162.761 104.342 166.913 104.342 171.33C104.342 175.729 102.624 179.88 99.4944 183.01L77.3644 205.059C76.8314 205.59 76.1164 205.857 75.4204 205.857C74.7254 205.857 74.0094 205.57 73.4784 205.037L51.4084 182.969C48.2994 179.839 46.5614 175.707 46.5614 171.289C46.5414 166.892 48.2584 162.741 51.3884 159.611C54.4974 156.502 58.6494 154.784 63.0464 154.784C67.4644 154.784 71.6164 156.502 74.7454 159.632L75.4414 160.326L76.1364 159.632C79.2664 156.502 83.4184 154.784 87.8364 154.784Z" fill="#EA5453"/>
<path fill-rule="evenodd" clip-rule="evenodd" d="M22.5693 189.365L19.6503 186.435C19.9003 186.183 25.7433 180.198 22.3903 173.866C21.6863 172.539 20.1293 171.398 18.3723 172.034C16.5453 172.693 15.5483 174.791 15.4093 178.268L11.2773 178.103C11.5423 171.474 14.5183 169.029 16.9683 168.145C20.4053 166.9 24.2263 168.494 26.0453 171.932C30.8423 180.99 22.9093 189.028 22.5693 189.365Z" fill="#243126"/>
<path fill-rule="evenodd" clip-rule="evenodd" d="M12.4976 193.035C10.5766 193.035 8.5166 192.598 6.4036 191.463C2.9796 189.626 1.4076 185.8 2.6666 182.368C3.5646 179.922 6.0266 176.959 12.6576 176.731L12.8006 180.864C9.3226 180.983 7.2196 181.97 6.5486 183.793C5.9056 185.547 7.0366 187.109 8.3596 187.819C14.7186 191.236 20.8756 185.216 20.9386 185.155L23.8566 188.085C23.5966 188.345 18.7916 193.035 12.4976 193.035Z" fill="#243126"/>
<path fill-rule="evenodd" clip-rule="evenodd" d="M55.9639 176.242L10.3519 221.283L-9.91821e-05 210.8L45.6119 165.759L55.9639 176.242Z" fill="#44C0BE"/>
<path fill-rule="evenodd" clip-rule="evenodd" d="M10.3521 221.283L7.4461 218.341L53.0591 173.3L55.9641 176.242L10.3521 221.283Z" fill="#243126"/>
<path fill-rule="evenodd" clip-rule="evenodd" d="M31.7109 200.202L10.3349 178.708L13.2669 175.792L34.6429 197.286L31.7109 200.202Z" fill="#243126"/>
<path fill-rule="evenodd" clip-rule="evenodd" d="M81.8027 119.305C81.8027 119.305 87.2797 113.829 92.0107 119.541C92.0107 119.541 94.4197 123.267 90.7327 127.12L81.8377 136.015" fill="#EA5453"/>
<path fill-rule="evenodd" clip-rule="evenodd" d="M81.873 119.305C81.873 119.305 76.397 113.829 71.665 119.541C71.665 119.541 69.256 123.267 72.944 127.12L81.838 136.015" fill="#EA5453"/>
<path fill-rule="evenodd" clip-rule="evenodd" d="M58.9712 131.567L59.0852 131.68L59.1992 131.566L58.9712 131.567ZM55.9392 131.813C55.4282 131.813 54.9492 132.01 54.5892 132.37C54.2292 132.73 54.0322 133.208 54.0322 133.72C54.0322 134.231 54.2322 134.712 54.5942 135.075L59.0782 139.558L63.5712 135.085C63.9332 134.721 64.1342 134.24 64.1342 133.73C64.1372 133.22 63.9392 132.743 63.5762 132.38C62.8482 131.653 61.5962 131.659 60.8712 132.38L60.2022 133.049C59.5862 133.665 58.5842 133.666 57.9692 133.048L57.2952 132.375C56.9312 132.012 56.4512 131.813 55.9392 131.813ZM58.9652 141.421L59.0802 141.537L59.1962 141.421H58.9652ZM59.0772 143.369C58.6662 143.369 58.2612 143.202 57.9652 142.908L52.3672 137.308C51.4082 136.342 50.8802 135.07 50.8802 133.725C50.8742 132.378 51.3992 131.104 52.3612 130.142C54.1322 128.37 57.1482 128.217 59.0822 129.75C61.0172 128.215 64.0332 128.369 65.8092 130.148C66.7662 131.11 67.2912 132.383 67.2912 133.735C67.2912 135.087 66.7632 136.36 65.8042 137.318L60.1912 142.912C59.8972 143.203 59.4922 143.369 59.0772 143.369Z" fill="#243126"/>
<path fill-rule="evenodd" clip-rule="evenodd" d="M86.2964 116.94C84.6934 116.94 83.1874 117.564 82.0514 118.699L81.7994 118.951L81.5464 118.699C80.4114 117.564 78.9044 116.94 77.3014 116.94C75.7064 116.94 74.1994 117.564 73.0714 118.691C71.9364 119.827 71.3134 121.334 71.3204 122.929C71.3204 124.532 71.9514 126.031 73.0794 127.167L81.0874 135.174C81.2794 135.367 81.5394 135.471 81.7914 135.471C82.0444 135.471 82.3034 135.375 82.4964 135.182L90.5264 127.182C91.6624 126.046 92.2854 124.54 92.2854 122.944C92.2854 121.341 91.6624 119.835 90.5344 118.699C89.3984 117.564 87.8924 116.94 86.2964 116.94Z" fill="#EA5453"/>
<path fill-rule="evenodd" clip-rule="evenodd" d="M104.59 221.283L46.1743 221.077L46.3133 181.727L104.728 181.932L104.59 221.283Z" fill="#44C0BE"/>
<mask id="mask0_283_762" style="mask-type:luminance" maskUnits="userSpaceOnUse" x="0" y="0" width="312" height="222">
<path fill-rule="evenodd" clip-rule="evenodd" d="M0 221.283H311.574V0H0V221.283Z" fill="white"/>
</mask>
<g mask="url(#mask0_283_762)">
<path fill-rule="evenodd" clip-rule="evenodd" d="M73.383 221.18H77.519V181.829H73.383V221.18Z" fill="#243126"/>
<path fill-rule="evenodd" clip-rule="evenodd" d="M46.299 185.611H104.673V181.475H46.299V185.611Z" fill="#243126"/>
<path fill-rule="evenodd" clip-rule="evenodd" d="M98.6899 155.927L90.4899 164.094L82.3059 155.91C81.4579 155.062 80.9919 153.939 80.9919 152.742C80.9919 151.544 81.4579 150.422 82.2979 149.582C83.1379 148.741 84.2609 148.276 85.4579 148.276C86.6559 148.276 87.7779 148.741 88.6269 149.59L89.7079 150.671C90.1489 151.112 90.8559 151.112 91.2959 150.671L92.3689 149.598C93.2179 148.75 94.3399 148.284 95.5379 148.284C96.7269 148.284 97.8499 148.75 98.6979 149.598C99.5459 150.447 100.012 151.569 100.003 152.759C100.003 153.956 99.5379 155.079 98.6899 155.927ZM95.5379 146.039C93.7409 146.039 92.0529 146.737 90.7809 148.01L90.4979 148.292L90.2149 148.01C88.9429 146.737 87.2549 146.039 85.4579 146.039C83.6699 146.039 81.9819 146.737 80.7179 148.001C79.4449 149.274 78.7469 150.962 78.7549 152.75C78.7549 154.547 79.4619 156.226 80.7259 157.499L89.6999 166.472C89.9159 166.689 90.2069 166.805 90.4899 166.805C90.7729 166.805 91.0639 166.697 91.2799 166.481L100.278 157.516C101.551 156.243 102.249 154.555 102.249 152.766C102.249 150.97 101.551 149.282 100.287 148.01C99.0139 146.737 97.3259 146.039 95.5379 146.039Z" fill="#243126"/>
<path fill-rule="evenodd" clip-rule="evenodd" d="M85.458 148.896C84.428 148.896 83.461 149.295 82.736 150.02C82.012 150.745 81.612 151.712 81.612 152.742C81.612 153.771 82.015 154.742 82.744 155.472L90.49 163.217L98.252 155.489C98.981 154.759 99.384 153.789 99.384 152.758C99.39 151.734 98.991 150.769 98.26 150.037C96.794 148.574 94.267 148.58 92.808 150.037L91.734 151.11C91.405 151.439 90.968 151.622 90.503 151.622H90.502C90.038 151.622 89.6 151.44 89.27 151.109L88.188 150.028C87.458 149.299 86.488 148.896 85.458 148.896ZM90.928 164.533L90.051 164.532L81.868 156.348C80.903 155.384 80.373 154.104 80.373 152.742C80.373 151.379 80.9 150.101 81.859 149.143C83.776 147.225 87.136 147.223 89.064 149.151L90.146 150.232C90.243 150.329 90.369 150.381 90.502 150.381C90.636 150.381 90.761 150.329 90.857 150.232L91.931 149.159C93.854 147.234 97.204 147.225 99.136 149.16C100.104 150.128 100.632 151.408 100.624 152.762C100.624 154.12 100.092 155.401 99.128 156.365V156.366L90.928 164.533ZM85.458 146.658C83.833 146.658 82.305 147.292 81.156 148.439C80.001 149.596 79.368 151.125 79.375 152.747C79.375 154.368 80.012 155.899 81.167 157.062L90.138 166.034C90.334 166.228 90.666 166.217 90.842 166.042L99.84 157.076C100.993 155.923 101.629 154.393 101.629 152.766C101.629 151.137 100.996 149.604 99.846 148.446C97.538 146.137 93.522 146.145 91.219 148.447L90.937 148.73L90.06 148.731L89.776 148.448C88.623 147.294 87.089 146.658 85.458 146.658ZM90.489 167.424C90.035 167.424 89.588 167.238 89.262 166.911L80.289 157.938C78.899 156.54 78.135 154.697 78.135 152.75C78.126 150.797 78.887 148.954 80.279 147.563C81.662 146.18 83.501 145.418 85.458 145.418C87.348 145.418 89.129 146.127 90.499 147.419C91.867 146.127 93.647 145.418 95.538 145.418C97.495 145.418 99.337 146.183 100.725 147.571C102.109 148.962 102.869 150.807 102.869 152.766C102.869 154.724 102.104 156.566 100.716 157.954L91.718 166.919C91.397 167.241 90.949 167.424 90.489 167.424Z" fill="#243126"/>
<path fill-rule="evenodd" clip-rule="evenodd" d="M209.464 71.0799H213.567V66.6699H209.464V71.0799Z" fill="#1D1D1B"/>
<path fill-rule="evenodd" clip-rule="evenodd" d="M209.464 63.171H213.567V58.761H209.464V63.171Z" fill="#1D1D1B"/>
<path fill-rule="evenodd" clip-rule="evenodd" d="M209.464 55.287H213.567V50.877H209.464V55.287Z" fill="#1D1D1B"/>
<path fill-rule="evenodd" clip-rule="evenodd" d="M287.523 57.4791H291.627V53.0691H287.523V57.4791Z" fill="#1D1D1B"/>
<path fill-rule="evenodd" clip-rule="evenodd" d="M287.523 49.596H291.627V45.186H287.523V49.596Z" fill="#1D1D1B"/>
<path fill-rule="evenodd" clip-rule="evenodd" d="M73.234 88.7821H77.337V84.3721H73.234V88.7821Z" fill="#1D1D1B"/>
<path fill-rule="evenodd" clip-rule="evenodd" d="M73.234 80.899H77.337V76.489H73.234V80.899Z" fill="#1D1D1B"/>
<path fill-rule="evenodd" clip-rule="evenodd" d="M309.708 107.464L306.203 105.269L308.068 102.291L311.574 104.485L309.708 107.464Z" fill="#243126"/>
<path fill-rule="evenodd" clip-rule="evenodd" d="M295.148 107.464L293.283 104.485L296.788 102.291L298.654 105.269L295.148 107.464Z" fill="#243126"/>
<path fill-rule="evenodd" clip-rule="evenodd" d="M304.155 111.029L300.641 110.977L300.702 106.844L304.216 106.894L304.155 111.029Z" fill="#243126"/>
<path fill-rule="evenodd" clip-rule="evenodd" d="M308.068 100.399L306.203 97.4201L309.708 95.2251L311.574 98.2041L308.068 100.399Z" fill="#243126"/>
<path fill-rule="evenodd" clip-rule="evenodd" d="M296.788 100.399L293.283 98.2041L295.148 95.2251L298.654 97.4201L296.788 100.399Z" fill="#243126"/>
<path fill-rule="evenodd" clip-rule="evenodd" d="M300.702 95.8454L300.641 91.7104L304.155 91.6604L304.216 95.7934L300.702 95.8454Z" fill="#243126"/>
<path fill-rule="evenodd" clip-rule="evenodd" d="M202.037 221.283H310.957V158.49H202.037V221.283Z" fill="#44C0BE"/>
<path fill-rule="evenodd" clip-rule="evenodd" d="M277.095 221.283H281.231V127.47H277.095V221.283Z" fill="#243126"/>
<path fill-rule="evenodd" clip-rule="evenodd" d="M202.036 192.455H310.956V188.319H202.036V192.455Z" fill="#243126"/>
<path fill-rule="evenodd" clip-rule="evenodd" d="M293.852 208.348L260.854 175.349L263.778 172.425L296.776 205.423L293.852 208.348Z" fill="#243126"/>
<path fill-rule="evenodd" clip-rule="evenodd" d="M263.778 208.348L260.854 205.423L293.852 172.425L296.776 175.349L263.778 208.348Z" fill="#243126"/>
<path fill-rule="evenodd" clip-rule="evenodd" d="M262.679 158.49H304.496V124.178H262.679V158.49ZM266.814 154.354H300.361V128.313H266.814V154.354Z" fill="#243126"/>
<path fill-rule="evenodd" clip-rule="evenodd" d="M264.745 143.401H302.828V139.266H264.745V143.401Z" fill="#243126"/>
<path fill-rule="evenodd" clip-rule="evenodd" d="M148.958 117.047C147.255 117.047 146.128 117.898 145.448 118.691C144.004 120.374 143.569 122.981 144.366 125.18C144.613 125.862 144.941 126.561 145.341 127.255C146.921 129.997 149.448 132.269 152.645 133.824C157.127 136.004 161.684 137.189 163.809 137.669C162.791 129.703 158.593 118.842 150.066 117.159C149.673 117.081 149.304 117.047 148.958 117.047ZM164.325 141.998C164.048 141.95 157.476 140.772 150.837 137.544C146.892 135.625 143.752 132.782 141.757 129.318C141.238 128.417 140.807 127.498 140.478 126.589C139.169 122.977 139.889 118.82 142.31 115.998C144.446 113.506 147.565 112.448 150.867 113.102C161.653 115.231 167.374 128.178 168.124 139.305L164.758 139.533L164.325 141.998Z" fill="#243126"/>
<path fill-rule="evenodd" clip-rule="evenodd" d="M183.541 117.047C183.195 117.047 182.826 117.081 182.433 117.159C173.906 118.842 169.709 129.703 168.689 137.669C170.814 137.189 175.371 136.003 179.853 133.824C183.052 132.269 185.578 129.997 187.159 127.254C187.558 126.56 187.887 125.861 188.133 125.179C188.929 122.981 188.494 120.373 187.049 118.69C186.37 117.898 185.243 117.047 183.541 117.047ZM168.174 141.998L167.74 139.533L164.375 139.305C165.126 128.177 170.848 115.231 181.633 113.102C184.924 112.454 188.05 113.506 190.188 115.996C192.609 118.818 193.329 122.976 192.022 126.588C191.693 127.495 191.263 128.413 190.744 129.317C188.747 132.782 185.606 135.625 181.663 137.544C175.023 140.772 168.45 141.95 168.174 141.998Z" fill="#243126"/>
<path fill-rule="evenodd" clip-rule="evenodd" d="M128.978 221.283H203.52V142.029H128.978V221.283Z" fill="#EA5453"/>
<path fill-rule="evenodd" clip-rule="evenodd" d="M164.182 220.073H168.318V136.014H164.182V220.073Z" fill="#243126"/>
<path fill-rule="evenodd" clip-rule="evenodd" d="M128.978 182.388H203.52V178.252H128.978V182.388Z" fill="#243126"/>
<path fill-rule="evenodd" clip-rule="evenodd" d="M181.287 160.452L164.298 143.464L167.223 140.54L184.211 157.528L181.287 160.452Z" fill="#243126"/>
<path fill-rule="evenodd" clip-rule="evenodd" d="M151.211 160.452L148.287 157.528L164.787 141.029L167.711 143.952L151.211 160.452Z" fill="#243126"/>
<path fill-rule="evenodd" clip-rule="evenodd" d="M203.52 158.49H262.678V93.7529H203.52V158.49Z" fill="#F5BF48"/>
<path fill-rule="evenodd" clip-rule="evenodd" d="M218.324 106.912C217.015 106.912 216.157 107.561 215.642 108.165C214.542 109.454 214.215 111.445 214.827 113.12C215.026 113.668 215.289 114.223 215.608 114.771C216.887 116.971 218.934 118.794 221.531 120.045C224.929 121.683 228.356 122.63 230.253 123.077C229.309 116.682 225.903 108.313 219.177 106.998C218.874 106.938 218.589 106.912 218.324 106.912ZM231.038 127.471C230.807 127.431 225.297 126.452 219.736 123.771C216.391 122.161 213.728 119.767 212.034 116.85C211.592 116.093 211.224 115.315 210.941 114.539C209.816 111.46 210.427 107.903 212.496 105.479C214.36 103.299 217.074 102.372 219.971 102.939C229.118 104.728 233.969 115.56 234.604 124.866L231.454 125.081L231.038 127.471Z" fill="#243126"/>
<path fill-rule="evenodd" clip-rule="evenodd" d="M247.07 106.912C246.803 106.912 246.52 106.938 246.217 106.998C239.489 108.313 236.083 116.68 235.141 123.075C237.042 122.626 240.478 121.676 243.861 120.045C246.458 118.795 248.506 116.972 249.784 114.772C250.107 114.216 250.369 113.662 250.567 113.121C251.179 111.445 250.85 109.453 249.75 108.164C249.234 107.56 248.376 106.912 247.07 106.912ZM234.354 127.471L233.935 125.081L230.79 124.867C231.424 115.561 236.272 104.729 245.422 102.939C248.311 102.376 251.032 103.299 252.893 105.477C254.966 107.901 255.577 111.458 254.453 114.539C254.172 115.308 253.804 116.087 253.358 116.851C251.662 119.767 249 122.162 245.656 123.771C240.094 126.452 234.584 127.431 234.354 127.471Z" fill="#243126"/>
<path fill-rule="evenodd" clip-rule="evenodd" d="M230.627 158.49H234.763V93.4409H230.627V158.49Z" fill="#243126"/>
<path fill-rule="evenodd" clip-rule="evenodd" d="M247.885 146.06L230.746 129.072L233.658 126.134L250.797 143.122L247.885 146.06Z" fill="#243126"/>
<path fill-rule="evenodd" clip-rule="evenodd" d="M217.508 146.059L214.596 143.123L231.239 126.623L234.152 129.56L217.508 146.059Z" fill="#243126"/>
<path fill-rule="evenodd" clip-rule="evenodd" d="M203.52 129.57H262.677V125.434H203.52V129.57Z" fill="#243126"/>
</g>
<path fill-rule="evenodd" clip-rule="evenodd" d="M178.509 48.5257C177.882 49.1527 177.882 50.1727 178.509 50.7997L180.392 52.6837C182.278 54.5677 182.278 57.6187 180.392 59.5047L178.509 61.3877C177.882 62.0147 177.882 63.0347 178.509 63.6617L180.392 65.5457C182.278 67.4297 182.278 70.4807 180.392 72.3667L178.509 74.2497C177.882 74.8767 177.882 75.8967 178.509 76.5237L180.392 78.4077C182.278 80.2917 182.278 83.3427 180.392 85.2287L177.874 87.7467C177.384 88.2367 177.263 88.9827 177.572 89.6027C177.97 90.3967 177.648 91.3617 176.853 91.7597C176.062 92.1557 175.093 91.8357 174.696 91.0397C173.767 89.1807 174.13 86.9427 175.601 85.4727L178.118 82.9547C178.748 82.3237 178.746 81.3087 178.118 80.6817L176.236 78.7967C174.355 76.9167 174.355 73.8567 176.236 71.9767L178.118 70.0927C178.748 69.4617 178.746 68.4467 178.118 67.8197L176.236 65.9357C174.355 64.0547 174.355 60.9947 176.236 59.1147L178.118 57.2317C178.748 56.6007 178.746 55.5857 178.118 54.9577L176.236 53.0737C174.355 51.1927 174.355 48.1327 176.236 46.2527C176.863 45.6247 177.881 45.6247 178.509 46.2527C179.137 46.8797 179.137 47.8987 178.509 48.5257Z" fill="#243126"/>
</svg>
