<svg width="154" height="171" viewBox="0 0 154 171" fill="none" xmlns="http://www.w3.org/2000/svg">
<path fill-rule="evenodd" clip-rule="evenodd" d="M153.535 74.306C153.535 114.938 120.589 147.876 79.9475 147.876C39.3084 147.876 6.3623 114.938 6.3623 74.306C6.3623 33.6744 39.3084 0.736084 79.9475 0.736084C120.589 0.736084 153.535 33.6744 153.535 74.306Z" fill="white"/>
<path d="M77.9687 6.68701V24.5373H93.6776L104.585 35.6963L108.161 32.3398C108.561 31.9631 109.089 31.7565 109.636 31.7565H131.302C132.49 31.7565 133.455 32.7208 133.455 33.9091V36.4641C133.455 37.0475 133.216 37.6071 132.796 38.014L121.357 49.0458C120.935 49.4526 120.341 49.6571 119.781 49.6485L118.168 49.5882L130.395 61.7093C130.802 62.1118 131.033 62.6628 131.033 63.2354V77.227C131.033 77.7996 130.804 78.3463 130.402 78.751L123.874 85.2754L120.829 82.2317L126.727 76.3359V64.133L111.214 48.7552C110.583 48.131 110.402 47.1838 110.757 46.3723C111.108 45.5587 111.913 45.0657 112.813 45.0765L119.027 45.3111L128.617 36.0616H110.488L104.479 41.7013V61.2185C104.479 61.7652 104.272 62.2905 103.9 62.6908L97.4815 69.551C97.0746 69.9858 96.5061 70.2312 95.9098 70.2312H54.6183L50.1572 77.8147V94.8521C50.1572 96.0425 49.1948 97.0047 48.0041 97.0047H33.0684V92.6996H45.8511V77.227C45.8511 76.846 45.9544 76.4672 46.1482 76.1378L49.8247 69.8893C49.2463 69.4075 48.1203 68.5173 46.7934 67.4835V72.1158H42.4873V63.103C42.4873 62.2851 42.9524 61.536 43.6866 61.1722C44.4208 60.8127 45.2992 60.8945 45.9473 61.3939C49.3554 63.9986 51.1929 65.4427 52.2077 66.2781C52.5528 66.0522 52.9614 65.9261 53.3868 65.9261H94.9753L100.173 60.3682V40.7692C100.173 40.1751 100.42 39.6069 100.853 39.2L101.447 38.6428L101.42 38.6158H93.7573V34.3107H97.2112L91.8647 28.8424H70.881L61.6357 19.5046L64.6974 16.476L72.6766 24.5373H73.6626V18.5607L67.6069 13.4439L70.3865 10.1569L73.6626 12.9251V6.68701H77.9687Z" fill="#243126"/>
<path d="M0.189453 57.8101H16.6948V53.505H0.189453V57.8101Z" fill="#243126"/>
<path d="M2.88086 66.4203H7.72525V62.1152H2.88086V66.4203Z" fill="#243126"/>
<path d="M29.2558 66.4203H11.0474V62.1152H29.2558V66.4203Z" fill="#243126"/>
<path d="M89.0918 119.337H93.9362V115.031H89.0918V119.337Z" fill="#243126"/>
<path d="M115.736 119.337H97.5273V115.031H115.736V119.337Z" fill="#243126"/>
<path d="M76.7114 111.624H81.5558V107.319H76.7114V111.624Z" fill="#243126"/>
<path d="M103.356 111.624H85.1475V107.319H103.356V111.624Z" fill="#243126"/>
<path d="M98.9606 22.3778L93.4004 16.8189L96.447 13.7751L101.991 19.3198L103.135 18.1658L100.982 16.0132L104.026 12.9695L106.165 15.1081L107.478 13.7842L110.535 16.8128L102.648 24.7751L107.189 29.1792L104.19 32.2703L96.5249 24.8354L98.9606 22.3778Z" fill="#243126"/>
<path d="M5.30273 124.046H11.0471C11.6026 124.046 12.1344 123.831 12.5349 123.45L32.5863 104.268H51.7723C52.3019 104.268 52.8143 104.075 53.2105 103.72L61.7474 96.0629H101.562C102.126 96.0629 102.668 95.8412 103.071 95.4473L107.11 91.478L123.725 98.5814C124.718 99.0076 125.874 98.6288 126.423 97.701L139.645 75.4479V100.771H135.339V105.076H141.124C141.697 105.076 142.244 104.85 142.647 104.447L143.32 103.773C143.723 103.371 143.951 102.824 143.951 102.252V67.6083C143.951 66.6397 143.303 65.7916 142.367 65.5333C141.432 65.2814 140.442 65.6775 139.947 66.5105L123.685 93.8802L107.478 86.9555C106.677 86.6111 105.747 86.7854 105.121 87.3989L100.681 91.7578H60.9228C60.3931 91.7578 59.8807 91.9537 59.4845 92.3089L50.9476 99.9633H31.7229C31.1675 99.9633 30.6357 100.179 30.233 100.562L10.1837 119.741H5.30273V124.046Z" fill="#243126"/>
<path d="M54.8265 33.5496C54.7662 33.6572 54.7016 33.7627 54.6327 33.8638C54.6327 33.866 54.6305 33.8681 54.6284 33.8703C53.5884 35.4223 51.8165 36.4426 49.8077 36.4426H6.68401C4.59338 36.4426 2.89893 34.7485 2.89893 32.6584C2.89893 30.5704 4.59338 28.8764 6.68401 28.8764H6.69693C6.68831 28.73 6.68401 28.5879 6.68401 28.4394C6.68401 26.8099 7.17491 25.2924 8.0146 24.0267V24.0245C8.19115 23.7619 8.38062 23.5079 8.58516 23.2668L8.62176 23.2238C8.71004 23.1204 8.80262 23.0193 8.89735 22.9224L8.94472 22.8729C9.16218 22.6469 9.39256 22.4338 9.63585 22.2379C9.63585 22.2357 9.63801 22.2357 9.63801 22.2357C9.75212 22.141 9.87054 22.0506 9.99111 21.9645C10.0078 21.9508 10.0257 21.9382 10.043 21.9259C10.0502 21.9208 10.0574 21.9158 10.0643 21.9107C10.1677 21.8397 10.271 21.7708 10.3744 21.7041C10.4023 21.6847 10.4281 21.6675 10.4539 21.6503C10.5788 21.5728 10.7038 21.4996 10.8308 21.4307C10.833 21.4285 10.8356 21.4269 10.8383 21.4253C10.841 21.4237 10.8437 21.4221 10.8459 21.4199C10.9837 21.3467 11.1215 21.2735 11.2614 21.209C11.2872 21.1961 11.3109 21.1853 11.3346 21.1746C11.4139 21.138 11.4943 21.1035 11.575 21.069C11.6082 21.0547 11.6415 21.0405 11.6748 21.026C11.6884 21.021 11.7021 21.0157 11.7157 21.0105C11.743 20.9999 11.7703 20.9894 11.7975 20.9808C11.903 20.9378 12.0085 20.9012 12.1162 20.8646C12.1549 20.8495 12.1958 20.8344 12.2368 20.8215C12.3702 20.7806 12.5059 20.7397 12.6437 20.7053C12.6544 20.701 12.6652 20.6967 12.676 20.6945C12.8245 20.6558 12.9753 20.6235 13.126 20.5933C13.1481 20.5887 13.1708 20.5847 13.1939 20.5806C13.2134 20.5771 13.2332 20.5736 13.253 20.5697C13.342 20.5522 13.4309 20.539 13.5222 20.5255C13.5435 20.5223 13.5651 20.5191 13.5867 20.5159C13.6362 20.5094 13.6879 20.5029 13.7417 20.4965C13.8515 20.4836 13.9592 20.4728 14.0712 20.4642C14.1185 20.4599 14.168 20.4556 14.2154 20.4556C14.3726 20.4448 14.5298 20.4405 14.6891 20.4405C15.5611 20.4405 16.3986 20.5804 17.1823 20.8366C17.2706 14.6049 22.3497 9.57874 28.6043 9.57874C28.7959 9.57874 28.9833 9.58519 29.1706 9.5938L29.3708 9.60672C29.4892 9.61533 29.6077 9.62394 29.7261 9.6347C29.81 9.64331 29.8919 9.65407 29.9737 9.66484C30.0749 9.6756 30.1761 9.68852 30.2751 9.70143C30.3373 9.71032 30.4006 9.72125 30.4635 9.73212C30.492 9.73703 30.5204 9.74194 30.5485 9.74663C30.5927 9.75524 30.6368 9.76278 30.681 9.77031C30.7251 9.77785 30.7692 9.78538 30.8134 9.79399C30.9103 9.81336 31.0071 9.83489 31.1062 9.85857C31.1837 9.87364 31.2634 9.89086 31.3409 9.91023C31.426 9.93151 31.5097 9.95425 31.5943 9.97724C31.6124 9.98216 31.6305 9.98709 31.6488 9.99203C31.6832 10.0017 31.7182 10.0114 31.7532 10.0211C31.7882 10.0308 31.8232 10.0405 31.8576 10.0501C31.9442 10.0761 32.0294 10.1035 32.1155 10.1311C32.1364 10.1378 32.1574 10.1446 32.1784 10.1513C32.2128 10.1636 32.2479 10.1752 32.2833 10.1869C32.31 10.1957 32.3368 10.2045 32.3636 10.2137C32.4734 10.2525 32.5832 10.2934 32.693 10.3364C32.7199 10.3472 32.7474 10.3574 32.7748 10.3676C32.8023 10.3779 32.8297 10.3881 32.8566 10.3989C32.9707 10.4462 33.0848 10.4936 33.1968 10.5431C33.2235 10.5558 33.2509 10.5677 33.2786 10.5798C33.2979 10.5882 33.3173 10.5967 33.3368 10.6055C33.4552 10.6593 33.5714 10.7153 33.6855 10.7712C33.7265 10.7928 33.7652 10.8121 33.804 10.8315C33.9245 10.8939 34.043 10.9564 34.1614 11.0231C34.1937 11.0403 34.2238 11.0575 34.2561 11.0769C34.3788 11.1458 34.4994 11.219 34.6221 11.2943C34.6287 11.2985 34.6354 11.3027 34.6422 11.3069C34.66 11.3179 34.6782 11.3292 34.6953 11.3417C34.8202 11.4192 34.9429 11.501 35.0657 11.5828C35.0743 11.5892 35.0834 11.5957 35.0926 11.6021C35.1017 11.6086 35.1109 11.615 35.1195 11.6215C35.2465 11.7098 35.3714 11.8002 35.4941 11.8927C35.4995 11.897 35.5054 11.9019 35.5113 11.9067C35.5173 11.9116 35.5232 11.9164 35.5286 11.9207C35.6578 12.0176 35.7826 12.1166 35.9054 12.2178C35.9086 12.221 35.9118 12.2237 35.915 12.2264C35.9183 12.2291 35.9215 12.2318 35.9247 12.235C36.0518 12.3405 36.1766 12.4502 36.2994 12.5622C38.5149 14.5834 39.9316 17.4592 40.0242 20.6687C40.0366 20.6653 40.0485 20.6631 40.0608 20.6608C40.0717 20.6588 40.083 20.6567 40.0952 20.6536C40.0952 20.6536 40.0959 20.653 40.0968 20.6524C40.0976 20.6519 40.0985 20.6515 40.0995 20.6515C40.1231 20.6458 40.1473 20.6414 40.1718 20.6369C40.1942 20.6328 40.2168 20.6286 40.2395 20.6235C40.3342 20.602 40.4289 20.5804 40.5258 20.5632C40.5684 20.5559 40.61 20.5505 40.652 20.5451C40.6715 20.5426 40.6912 20.5401 40.711 20.5374C40.8014 20.5223 40.894 20.5072 40.9866 20.4965C41.0662 20.4857 41.1481 20.4793 41.2299 20.4728C41.2496 20.4711 41.2691 20.4693 41.2886 20.4675C41.3436 20.4623 41.3981 20.4572 41.4538 20.4556C41.611 20.4448 41.7703 20.4405 41.9318 20.4405C45.0731 20.4405 47.7924 22.2508 49.1015 24.8855C49.334 24.8576 49.5687 24.8425 49.8077 24.8425C53.0114 24.8425 55.6102 27.4406 55.6102 30.6436C55.6102 30.7749 55.6037 30.9062 55.5951 31.0397L55.5944 31.0496C55.5925 31.0772 55.5903 31.1075 55.5865 31.1344C55.5757 31.2635 55.5628 31.3927 55.5434 31.5154V31.5219C55.524 31.651 55.4982 31.7759 55.4702 31.9029C55.467 31.9179 55.4638 31.9325 55.4605 31.947C55.4573 31.9615 55.4541 31.976 55.4508 31.9911C55.4207 32.1138 55.3906 32.2344 55.3518 32.357C55.3518 32.357 55.3518 32.3592 55.3497 32.3592C55.313 32.4819 55.27 32.6024 55.2226 32.723C55.214 32.7467 55.2054 32.7725 55.1946 32.7983C55.1473 32.9146 55.0977 33.0286 55.0439 33.1427L55.0418 33.1449C54.9879 33.2611 54.9277 33.3731 54.8652 33.485C54.8609 33.4921 54.8566 33.4996 54.8523 33.507C54.8437 33.5218 54.8351 33.5366 54.8265 33.5496Z" fill="#FF7A7B"/>
<path d="M74.3748 137.76C80.1665 137.76 84.9915 141.895 86.0616 147.373C90.1653 149.252 93.016 153.394 93.016 158.2C93.016 158.467 93.0052 158.73 92.9858 158.993C92.9837 159.04 92.9794 159.087 92.9751 159.135C92.96 159.354 92.9342 159.574 92.904 159.791C92.8997 159.826 92.8976 159.862 92.8933 159.897L92.8911 159.884C92.073 165.663 87.1101 170.111 81.1053 170.111H12.2568C7.36291 170.111 3.39697 166.143 3.39697 161.251C3.39697 156.36 7.36291 152.393 12.2568 152.393C13.6455 152.393 14.9589 152.711 16.128 153.282C17.127 151.084 18.7784 149.246 20.8325 148.006C20.8285 148.007 20.825 148.007 20.8218 148.008C20.8179 148.009 20.8144 148.009 20.8109 148.01C20.8441 147.99 20.8773 147.972 20.9108 147.954C20.9382 147.939 20.9659 147.923 20.9939 147.907C21.0176 147.893 21.0414 147.88 21.0652 147.866C21.1521 147.817 21.2403 147.766 21.3298 147.717C21.4569 147.651 21.586 147.584 21.7174 147.519C21.8315 147.464 21.9477 147.408 22.064 147.354C22.1717 147.305 22.2808 147.259 22.3913 147.213C22.4178 147.202 22.4443 147.191 22.4709 147.179C22.5029 147.167 22.5347 147.154 22.5665 147.141C22.6525 147.106 22.7382 147.071 22.8262 147.039C22.9243 147.002 23.0245 146.968 23.1253 146.935C23.1683 146.92 23.2115 146.906 23.2547 146.891C23.2818 146.882 23.309 146.873 23.3362 146.864C23.4276 146.834 23.5192 146.803 23.6121 146.777C23.7342 146.74 23.8578 146.709 23.9816 146.678C24.0106 146.671 24.0395 146.664 24.0685 146.656L24.1197 146.643C24.2206 146.617 24.3206 146.592 24.4238 146.568C24.5482 146.542 24.6752 146.519 24.8027 146.496C24.8407 146.489 24.8788 146.482 24.9168 146.475C24.9531 146.469 24.9894 146.462 25.0258 146.456C25.1016 146.442 25.1777 146.428 25.2549 146.417C25.44 146.392 25.6295 146.372 25.819 146.353C25.8561 146.349 25.8932 146.345 25.9305 146.341C25.9883 146.335 26.0464 146.329 26.1053 146.325C26.3938 146.303 26.6823 146.293 26.9751 146.293C27.8859 146.293 28.773 146.398 29.6277 146.594C31.1112 136.763 39.5942 129.229 49.8407 129.229C50.0904 129.229 50.3402 129.234 50.5878 129.242C50.6674 129.246 50.7471 129.253 50.8268 129.255C50.9947 129.264 51.1626 129.272 51.3284 129.285C51.4232 129.292 51.5157 129.3 51.6083 129.307C51.759 129.32 51.9141 129.335 52.0648 129.35C52.1617 129.361 52.2564 129.373 52.3511 129.386C52.4997 129.404 52.6461 129.421 52.7947 129.442C52.8894 129.457 52.9841 129.472 53.081 129.488C53.2274 129.511 53.3717 129.535 53.5181 129.563C53.6107 129.578 53.7033 129.595 53.7937 129.615C53.8361 129.623 53.8784 129.632 53.9206 129.64C54.0259 129.661 54.1305 129.682 54.2351 129.705C54.3233 129.726 54.4116 129.746 54.4999 129.765C54.5755 129.784 54.6501 129.802 54.7246 129.82C54.7986 129.839 54.8726 129.857 54.9477 129.875L55.1932 129.94C55.3482 129.983 55.5011 130.026 55.6539 130.071C55.6891 130.082 55.7242 130.092 55.7592 130.102C55.7991 130.114 55.8388 130.125 55.8778 130.138C55.9981 130.176 56.1171 130.215 56.2367 130.253C56.2778 130.266 56.3189 130.279 56.3601 130.293C56.4047 130.309 56.4514 130.325 56.4972 130.341C56.5156 130.347 56.5338 130.353 56.5517 130.359C56.7261 130.42 56.8984 130.482 57.0685 130.549C57.1178 130.566 57.1678 130.583 57.217 130.603C57.4087 130.678 57.6024 130.755 57.7919 130.835C57.8177 130.846 57.8437 130.857 57.8694 130.869C58.9804 131.345 60.0419 131.916 61.043 132.572L61.0452 132.574C63.8162 134.395 66.1221 136.871 67.7347 139.783C69.6316 138.507 71.916 137.76 74.3748 137.76Z" fill="#FF7A7B"/>
</svg>
